:FULLY-SPECIFIED
:FORCE-ALL-JOINTS-BE-3DOF
:DEGREES
408
root 7.15854 13.795 -34.2327 158.306 75.1587 152.419
lfemur 17.4236 -2.9334 -10.539
ltibia 25.2771 0 0
lfoot -23.4191 33.1561 0
ltoes -25.385 0 0
rfemur -65.5551 -15.5482 7.81688
rtibia 77.3649 0 0
rfoot -12.673 13.2562 0
rtoes 10.1364 0 0
lowerback 8.83792 4.82488 -11.6751
upperback -2.45706 5.0395 -1.18178
thorax -8.55423 3.02388 4.41074
lowerneck 0.334245 -11.5323 -11.141
upperneck 3.21424 -15.652 9.06574
head 2.51382 -7.8261 3.9322
lclavicle -2.84997e-14 4.84009e-15 0
lhumerus -69.6427 -20.5973 106.894
lradius 100.177 0 0
lwrist 51.1846 0 0
lhand -10.7272 42.815 0
lfingers 7.12502 0 0
lthumb 15.2827 72.2177 0
rclavicle -2.84997e-14 4.84009e-15 0
rhumerus 49.1296 -3.79408 -60.1164
rradius 20.6995 0 0
rwrist 18.8421 0 0
rhand -21.5886 -33.3179 0
rfingers 7.12502 0 0
rthumb 4.80563 -63.233 0
409
root 7.16779 13.7915 -34.2408 158.584 75.1746 152.602
lfemur 17.7973 -2.84079 -10.465
ltibia 24.8324 0 0
lfoot -23.4065 33.1538 0
ltoes -25.805 0 0
rfemur -65.7742 -15.7904 7.96074
rtibia 77.9303 0 0
rfoot -13.1346 13.2341 0
rtoes 10.1532 0 0
lowerback 8.70976 4.84137 -11.6794
upperback -2.49184 5.07589 -1.17678
thorax -8.5271 3.04215 4.41623
lowerneck 0.396374 -11.5579 -11.2064
upperneck 3.22085 -15.694 9.11974
head 2.51226 -7.84708 3.9573
lclavicle -3.268e-14 2.17039e-15 0
lhumerus -69.8033 -20.4086 106.773
lradius 100.204 0 0
lwrist 51.1586 0 0
lhand -10.4635 42.8438 0
lfingers 7.12502 0 0
lthumb 15.5368 72.2301 0
rclavicle -3.268e-14 2.17039e-15 0
rhumerus 49.1503 -3.78345 -59.9371
rradius 20.5044 0 0
rwrist 18.6751 0 0
rhand -21.6028 -33.2608 0
rfingers 7.12502 0 0
rthumb 4.79202 -63.1791 0
410
root 7.17705 13.7881 -34.249 158.913 75.1838 152.821
lfemur 18.2092 -2.74597 -10.3792
ltibia 24.3385 0 0
lfoot -23.3869 33.158 0
ltoes -26.2633 0 0
rfemur -66.029 -16.0675 8.12433
rtibia 78.5814 0 0
rfoot -13.6636 13.218 0
rtoes 10.1607 0 0
lowerback 8.56706 4.86316 -11.6858
upperback -2.52998 5.12055 -1.1747
thorax -8.49689 3.06444 4.41832
lowerneck 0.469426 -11.592 -11.2817
upperneck 3.22313 -15.7483 9.18632
head 2.50924 -7.8742 3.9873
lclavicle -3.71335e-14 -6.34592e-16 0
lhumerus -69.9954 -20.1947 106.629
lradius 100.238 0 0
lwrist 51.1295 0 0
lhand -10.171 42.8776 0
lfingers 7.12502 0 0
lthumb 15.8188 72.246 0
rclavicle -3.71335e-14 -6.34592e-16 0
rhumerus 49.1835 -3.79189 -59.7383
rradius 20.2641 0 0
rwrist 18.5156 0 0
rhand -21.6321 -33.2015 0
rfingers 7.12502 0 0
rthumb 4.76387 -63.1239 0
411
root 7.1863 13.7847 -34.2571 159.297 75.1858 153.078
lfemur 18.6608 -2.64898 -10.2808
ltibia 23.7931 0 0
lfoot -23.3599 33.1691 0
ltoes -26.7615 0 0
rfemur -66.3214 -16.3813 8.30861
rtibia 79.3225 0 0
rfoot -14.2636 13.2081 0
rtoes 10.1582 0 0
lowerback 8.40914 4.89058 -11.6943
upperback -2.57162 5.17394 -1.17575
thorax -8.46346 3.09095 4.41678
lowerneck 0.553975 -11.6349 -11.3675
upperneck 3.2208 -15.8159 9.26617
head 2.50468 -7.9078 4.02246
lclavicle -4.1869e-14 -3.57812e-15 0
lhumerus -70.2204 -19.9544 106.459
lradius 100.279 0 0
lwrist 51.0973 0 0
lhand -9.84827 42.9166 0
lfingers 7.12502 0 0
lthumb 16.1298 72.2654 0
rclavicle -4.1869e-14 -3.57812e-15 0
rhumerus 49.2299 -3.82067 -59.519
rradius 19.9761 0 0
rwrist 18.3642 0 0
rhand -21.6774 -33.1399 0
rfingers 7.12502 0 0
rthumb 4.72027 -63.0674 0
412
root 7.12532 13.7941 -34.2774 159.611 75.1762 153.441
lfemur 18.376 -2.75634 -10.2382
ltibia 24.2679 0 0
lfoot -23.3554 33.0729 0
ltoes -26.8069 0 0
rfemur -66.1971 -16.2814 8.28109
rtibia 79.0877 0 0
rfoot -14.1237 13.1269 0
rtoes 9.97002 0 0
lowerback 8.47389 4.85746 -11.6292
upperback -2.54424 5.13765 -1.13194
thorax -8.46307 3.07066 4.43377
lowerneck 0.592714 -11.6525 -11.382
upperneck 3.1848 -15.8429 9.3237
head 2.49758 -7.92249 4.04286
lclavicle -4.13234e-14 -4.03451e-15 0
lhumerus -70.0846 -20.1834 106.415
lradius 100.283 0 0
lwrist 51.0281 0 0
lhand -9.78954 42.9124 0
lfingers 7.12502 0 0
lthumb 16.1863 72.2566 0
rclavicle -4.13234e-14 -4.03451e-15 0
rhumerus 49.0431 -3.74074 -59.2943
rradius 20.4108 0 0
rwrist 17.7054 0 0
rhand -21.4794 -33.2502 0
rfingers 7.12502 0 0
rthumb 4.91112 -63.1664 0
413
root 7.06435 13.8034 -34.2977 159.881 75.1678 153.752
lfemur 18.1312 -2.84859 -10.2016
ltibia 24.6756 0 0
lfoot -23.3516 32.9904 0
ltoes -26.8453 0 0
rfemur -66.0905 -16.1956 8.2574
rtibia 78.8861 0 0
rfoot -14.0035 13.0573 0
rtoes 9.80846 0 0
lowerback 8.52954 4.82907 -11.5734
upperback -2.52071 5.10652 -1.09439
thorax -8.46276 3.05325 4.44831
lowerneck 0.625932 -11.6677 -11.3944
upperneck 3.15386 -15.866 9.37306
head 2.49148 -7.9351 4.06036
lclavicle -4.085e-14 -4.42229e-15 0
lhumerus -69.9681 -20.38 106.377
lradius 100.286 0 0
lwrist 50.9688 0 0
lhand -9.73939 42.9087 0
lfingers 7.12502 0 0
lthumb 16.2346 72.249 0
rclavicle -4.085e-14 -4.42229e-15 0
rhumerus 48.8829 -3.67236 -59.1018
rradius 20.7836 0 0
rwrist 17.1407 0 0
rhand -21.3097 -33.345 0
rfingers 7.12502 0 0
rthumb 5.07474 -63.2515 0
414
root 7.00337 13.8128 -34.318 160.111 75.1605 154.017
lfemur 17.922 -2.92753 -10.1705
ltibia 25.0238 0 0
lfoot -23.3482 32.9202 0
ltoes -26.8772 0 0
rfemur -65.9994 -16.1223 8.23703
rtibia 78.7137 0 0
rfoot -13.9005 12.9982 0
rtoes 9.67052 0 0
lowerback 8.57718 4.80491 -11.5259
upperback -2.50059 5.08001 -1.06247
thorax -8.46255 3.03843 4.46061
lowerneck 0.654211 -11.6807 -11.4049
upperneck 3.12739 -15.8858 9.41517
head 2.48625 -7.94589 4.07527
lclavicle -4.04354e-14 -4.74485e-15 0
lhumerus -69.8688 -20.5478 106.345
lradius 100.289 0 0
lwrist 50.9183 0 0
lhand -9.69712 42.9056 0
lfingers 7.12502 0 0
lthumb 16.2753 72.2426 0
rclavicle -4.04354e-14 -4.74485e-15 0
rhumerus 48.7465 -3.61451 -58.938
rradius 21.1012 0 0
rwrist 16.6601 0 0
rhand -21.1653 -33.4259 0
rfingers 7.12502 0 0
rthumb 5.21395 -63.3242 0
415
root 6.94239 13.8222 -34.3383 160.306 75.1539 154.242
lfemur 17.7434 -2.99497 -10.1443
ltibia 25.3203 0 0
lfoot -23.3452 32.8609 0
ltoes -26.9028 0 0
rfemur -65.9219 -16.0596 8.21947
rtibia 78.5666 0 0
rfoot -13.8124 12.9484 0
rtoes 9.55321 0 0
lowerback 8.61793 4.7845 -11.4856
upperback -2.48342 5.05757 -1.03554
thorax -8.46244 3.02587 4.47089
lowerneck 0.678131 -11.6918 -11.4138
upperneck 3.10477 -15.9028 9.45091
head 2.48179 -7.9551 4.08791
lclavicle -4.0066e-14 -5.00556e-15 0
lhumerus -69.7846 -20.6905 106.318
lradius 100.291 0 0
lwrist 50.8756 0 0
lhand -9.66206 42.903 0
lfingers 7.12502 0 0
lthumb 16.3091 72.2371 0
rclavicle -4.0066e-14 -5.00556e-15 0
rhumerus 48.6312 -3.56614 -58.7997
rradius 21.3703 0 0
rwrist 16.2541 0 0
rhand -21.0433 -33.4948 0
rfingers 7.12502 0 0
rthumb 5.33157 -63.3861 0
416
root 6.88142 13.8315 -34.3586 160.47 75.148 154.431
lfemur 17.5908 -3.05269 -10.1222
ltibia 25.5726 0 0
lfoot -23.3424 32.8111 0
ltoes -26.9223 0 0
rfemur -65.8561 -16.006 8.20422
rtibia 78.4411 0 0
rfoot -13.7368 12.9069 0
rtoes 9.4535 0 0
lowerback 8.65286 4.76734 -11.4517
upperback -2.46874 5.03866 -1.01296
thorax -8.46246 3.01527 4.47938
lowerneck 0.698274 -11.7013 -11.4211
upperneck 3.0854 -15.9172 9.4812
head 2.47797 -7.96296 4.09858
lclavicle -3.97282e-14 -5.20778e-15 0
lhumerus -69.7134 -20.8116 106.295
lradius 100.294 0 0
lwrist 50.8395 0 0
lhand -9.63352 42.9007 0
lfingers 7.12502 0 0
lthumb 16.3366 72.2326 0
rclavicle -3.97282e-14 -5.20778e-15 0
rhumerus 48.5341 -3.52623 -58.6836
rradius 21.5974 0 0
rwrist 15.9129 0 0
rhand -20.9407 -33.5534 0
rfingers 7.12502 0 0
rthumb 5.43044 -63.4388 0
417
root 6.82044 13.8409 -34.3789 160.609 75.1424 154.592
lfemur 17.4596 -3.1025 -10.1038
ltibia 25.7885 0 0
lfoot -23.3399 32.7695 0
ltoes -26.9361 0 0
rfemur -65.7999 -15.9599 8.19077
rtibia 78.3333 0 0
rfoot -13.6714 12.8723 0
rtoes 9.36839 0 0
lowerback 8.68309 4.75294 -11.423
upperback -2.45611 5.02271 -0.994086
thorax -8.46261 3.00633 4.48629
lowerneck 0.715221 -11.7096 -11.4271
upperneck 3.06867 -15.9297 9.50692
head 2.47466 -7.96973 4.1076
lclavicle -3.94087e-14 -5.35489e-15 0
lhumerus -69.6531 -20.9148 106.276
lradius 100.295 0 0
lwrist 50.8092 0 0
lhand -9.61082 42.8987 0
lfingers 7.12502 0 0
lthumb 16.3584 72.2288 0
rclavicle -3.94087e-14 -5.35489e-15 0
rhumerus 48.4525 -3.49373 -58.5863
rradius 21.7891 0 0
rwrist 15.6267 0 0
rhand -20.8547 -33.6035 0
rfingers 7.12502 0 0
rthumb 5.51337 -63.484 0
418
root 6.75946 13.8503 -34.3991 160.727 75.1368 154.729
lfemur 17.3449 -3.1462 -10.0882
ltibia 25.9755 0 0
lfoot -23.3373 32.7344 0
ltoes -26.9443 0 0
rfemur -65.7514 -15.9195 8.17861
rtibia 78.2392 0 0
rfoot -13.6137 12.8436 0
rtoes 9.29488 0 0
lowerback 8.7097 4.74082 -11.3986
upperback -2.44507 5.00918 -0.978292
thorax -8.46292 2.99873 4.49185
lowerneck 0.729552 -11.7168 -11.4319
upperneck 3.05399 -15.9407 9.52898
head 2.47176 -7.97564 4.11527
lclavicle -3.90937e-14 -5.45026e-15 0
lhumerus -69.6016 -21.0038 106.259
lradius 100.297 0 0
lwrist 50.7835 0 0
lhand -9.59328 42.897 0
lfingers 7.12502 0 0
lthumb 16.3753 72.2256 0
rclavicle -3.90937e-14 -5.45026e-15 0
rhumerus 48.3835 -3.4676 -58.5046
rradius 21.9522 0 0
rwrist 15.3857 0 0
rhand -20.7822 -33.647 0
rfingers 7.12502 0 0
rthumb 5.5832 -63.5232 0
419
root 6.69849 13.8596 -34.4194 160.829 75.1311 154.848
lfemur 17.242 -3.18558 -10.075
ltibia 26.1414 0 0
lfoot -23.3347 32.7047 0
ltoes -26.9474 0 0
rfemur -65.7085 -15.8833 8.16724
rtibia 78.1551 0 0
rfoot -13.5614 12.8196 0
rtoes 9.22997 0 0
lowerback 8.73379 4.73047 -11.3776
upperback -2.43517 4.99753 -0.964935
thorax -8.4634 2.99217 4.49627
lowerneck 0.741848 -11.7234 -11.4359
upperneck 3.04075 -15.9505 9.54827
head 2.46915 -7.98095 4.12192
lclavicle -3.87699e-14 -5.49727e-15 0
lhumerus -69.5569 -21.0821 106.245
lradius 100.299 0 0
lwrist 50.7614 0 0
lhand -9.58021 42.8954 0
lfingers 7.12502 0 0
lthumb 16.3879 72.223 0
rclavicle -3.87699e-14 -5.49727e-15 0
rhumerus 48.3244 -3.44682 -58.4352
rradius 22.0931 0 0
rwrist 15.1802 0 0
rhand -20.7204 -33.6855 0
rfingers 7.12502 0 0
rthumb 5.64274 -63.5581 0
420
root 6.63751 13.869 -34.4397 160.92 75.125 154.954
lfemur 17.1464 -3.22244 -10.0635
ltibia 26.2939 0 0
lfoot -23.3319 32.6787 0
ltoes -26.9456 0 0
rfemur -65.6693 -15.8495 8.15615
rtibia 78.077 0 0
rfoot -13.5121 12.7992 0
rtoes 9.17064 0 0
lowerback 8.75646 4.72142 -11.3589
upperback -2.42594 4.9872 -0.953379
thorax -8.46406 2.98633 4.49977
lowerneck 0.752691 -11.7297 -11.4391
upperneck 3.02834 -15.9598 9.56571
head 2.46669 -7.98588 4.12786
lclavicle -3.84236e-14 -5.49928e-15 0
lhumerus -69.5167 -21.1535 106.232
lradius 100.3 0 0
lwrist 50.7418 0 0
lhand -9.57093 42.8939 0
lfingers 7.12502 0 0
lthumb 16.3968 72.2207 0
rclavicle -3.84236e-14 -5.49928e-15 0
rhumerus 48.2723 -3.43035 -58.3747
rradius 22.2186 0 0
rwrist 15.0005 0 0
rhand -20.6664 -33.7209 0
rfingers 7.12502 0 0
rthumb 5.69483 -63.5903 0
421
root 6.57653 13.8784 -34.46 161.004 75.1183 155.053
lfemur 17.0531 -3.25859 -10.0531
ltibia 26.4405 0 0
lfoot -23.3289 32.6552 0
ltoes -26.9391 0 0
rfemur -65.6318 -15.8164 8.14483
rtibia 78.0012 0 0
rfoot -13.4634 12.7812 0
rtoes 9.11388 0 0
lowerback 8.77881 4.71316 -11.3415
upperback -2.41695 4.97765 -0.942986
thorax -8.46493 2.9809 4.50259
lowerneck 0.762662 -11.7358 -11.4417
upperneck 3.01616 -15.9688 9.58218
head 2.46428 -7.99069 4.13339
lclavicle -3.80414e-14 -5.45968e-15 0
lhumerus -69.4791 -21.2215 106.22
lradius 100.302 0 0
lwrist 50.7238 0 0
lhand -9.56475 42.8924 0
lfingers 7.12502 0 0
lthumb 16.4028 72.2187 0
rclavicle -3.80414e-14 -5.45968e-15 0
rhumerus 48.2245 -3.41715 -58.32
rradius 22.3352 0 0
rwrist 14.8368 0 0
rhand -20.6172 -33.7549 0
rfingers 7.12502 0 0
rthumb 5.74228 -63.6213 0
